<svg id="Capa_1" data-name="Capa 1" xmlns="http://www.w3.org/2000/svg" viewBox="0 0 595.28 841.89"><defs><style>.cls-1{fill:#fff;}</style></defs><path class="cls-1" d="M106,228.89H490v384H106ZM357.66,496.08a12.76,12.76,0,0,1-1.82.32q-47.32,0-94.67.09c-2.19,0-2.65-1.09-3.08-2.82-3.45-14.05-13.58-23.24-27.1-24.65-13.76-1.45-28.05,5.39-32.36,18.37-3,9.11-8,10-15.42,9.06a14.81,14.81,0,0,0-1.49,0c-9.76-.06-14.4-4.72-14.41-14.49q0-32.37,0-64.74c0-4-1.62-6.22-4.49-6-3.54.27-4.33,2.75-4.33,5.82,0,22.08,0,44.16,0,66.24.06,12.84,9.2,21.79,22,21.85,4.83,0,9.65,0,14.42,0,.3,1,.51,1.58.65,2.18,3.55,15.13,15.26,25,30.18,25.32a32.44,32.44,0,0,0,31.7-23.76c.82-3,1.91-3.83,5-3.82,39.17.12,78.33.08,117.5.08h3.92c4.87,17.41,14.92,26.39,30.3,27.23a30.25,30.25,0,0,0,18.14-4.78c8.26-5.22,12.81-12.94,14.68-22.45h12.24c13.92,0,22.63-8.68,22.68-22.63,0-14.46-.06-28.93,0-43.39A43.18,43.18,0,0,0,477.59,420c-6.72-14.18-13.45-28.36-20-42.64-7.13-15.66-19.24-23.24-36.33-23.21-16.72,0-33.43,0-50.15,0h-4.69V333.93c0-15.37-8.46-23.87-23.81-23.87q-80.07,0-160.16,0a44.55,44.55,0,0,0-6.33.38c-9.6,1.38-17.54,10.42-17.62,19.95,0,2.7,1,4.73,3.87,5.05s4.38-1.33,4.87-4c1.71-9.55,5.42-12.67,15.16-12.67H342.6c10.53,0,15.06,4.5,15.06,15q0,79.14,0,158.28Zm-200-125H120.34a24.66,24.66,0,0,0-3,.06c-2.43.29-3.89,1.66-4,4.14s1.29,4,3.72,4.36a22,22,0,0,0,3.35.14h74.37c1.36,0,3,.28,4-.39,1.34-.94,2.95-2.67,2.93-4s-1.71-3-3-4c-.71-.56-2.16-.24-3.28-.24Zm19.78-23.86c-11.23,0-22.45,0-33.68,0-4,0-6.16,1.6-6.15,4.41s2.22,4.39,6.2,4.4h66.6c4,0,6.17-1.65,6.15-4.44s-2.16-4.36-6.19-4.37C199.44,347.17,188.47,347.19,177.49,347.19Zm18.15,54c5.22,0,10.44,0,15.66,0,3.08,0,5.28-1.22,5.24-4.42,0-3-2.17-4.22-5.08-4.21q-15.66,0-31.32,0c-3,0-5.29,1.11-5.21,4.42s2.45,4.24,5.43,4.21C185.45,401.15,190.55,401.19,195.64,401.18Z"/><path d="M357.66,496.08V492q0-79.14,0-158.28c0-10.49-4.53-15-15.06-15H182.44c-9.74,0-13.45,3.12-15.16,12.67-.49,2.71-2,4.36-4.87,4s-3.9-2.35-3.87-5.05c.08-9.53,8-18.57,17.62-19.95a44.55,44.55,0,0,1,6.33-.38q80.08,0,160.16,0c15.35,0,23.8,8.5,23.81,23.87v20.21h4.69c16.72,0,33.43,0,50.15,0,17.09,0,29.2,7.55,36.33,23.21,6.51,14.28,13.24,28.46,20,42.64A43.18,43.18,0,0,1,482,439.11c-.09,14.46,0,28.93,0,43.39-.05,13.95-8.76,22.6-22.68,22.63H447c-1.87,9.51-6.42,17.23-14.68,22.45a30.25,30.25,0,0,1-18.14,4.78c-15.38-.84-25.43-9.82-30.3-27.23H380c-39.17,0-78.33,0-117.5-.08-3.06,0-4.15.84-5,3.82a32.44,32.44,0,0,1-31.7,23.76c-14.92-.36-26.63-10.19-30.18-25.32-.14-.6-.35-1.18-.65-2.18-4.77,0-9.59,0-14.42,0-12.82-.06-22-9-22-21.85-.09-22.08,0-44.16,0-66.24,0-3.07.79-5.55,4.33-5.82,2.87-.22,4.49,2,4.49,6q0,32.37,0,64.74c0,9.77,4.65,14.43,14.41,14.49a14.81,14.81,0,0,1,1.49,0c7.44.91,12.38.05,15.42-9.06,4.31-13,18.6-19.82,32.36-18.37,13.52,1.41,23.65,10.6,27.1,24.65.43,1.73.89,2.82,3.08,2.82q47.34-.12,94.67-.09A12.76,12.76,0,0,0,357.66,496.08Zm9.61.36c4.39,0,8.39-.22,12.35.07,3.26.25,4.67-.68,5.54-4.06a31.16,31.16,0,0,1,29.16-23.25,31.68,31.68,0,0,1,31.2,21.66c.58,1.74,1,3.53,1.49,5.36,5.4,0,10.63.29,15.82-.09a10.85,10.85,0,0,0,9.92-9.27c.58-4.74.12-9.6.12-14.82-1.95,0-3.94.16-5.89,0a11.53,11.53,0,0,1-10.54-11.55,11.33,11.33,0,0,1,10.76-10.9c1.94-.16,3.89-.22,5.76-.32,1.41-10.1.26-18-3.74-26.54q-10.16-21.63-20.31-43.28c-5.22-11-14.08-16.45-26.2-16.5-17.2-.06-34.41,0-51.62,0-1.21,0-2.43.1-3.82.17Zm-117.53,4a22,22,0,0,0-21.47-23c-12.46-.38-24.06,9.9-24.33,21.58-.33,14.09,8.46,24.35,21.23,24.79C238.9,524.3,249.32,514.37,249.74,500.43ZM415.58,478a22.67,22.67,0,0,0-22.94,22.58,22.86,22.86,0,1,0,45.71.52A22.64,22.64,0,0,0,415.58,478Zm57.54-20.46c-2.77.7-5.16,1.23-7.45,2a4.16,4.16,0,0,0,.13,2.56c2.32.67,4.73,1,7.32,1.56Z"/><path d="M157.71,371.05h37.75c1.12,0,2.57-.32,3.28.24,1.31,1.06,3,2.64,3,4s-1.59,3.09-2.93,4c-1,.67-2.64.39-4,.39H120.46a22,22,0,0,1-3.35-.14c-2.43-.39-3.8-1.86-3.72-4.36s1.54-3.85,4-4.14a24.66,24.66,0,0,1,3-.06Z"/><path d="M177.49,347.19c11,0,21.95,0,32.93,0,4,0,6.18,1.56,6.19,4.37s-2.18,4.43-6.15,4.44h-66.6c-4,0-6.19-1.62-6.2-4.4s2.16-4.4,6.15-4.41C155,347.17,166.26,347.19,177.49,347.19Z"/><path d="M195.64,401.19c-5.09,0-10.19,0-15.28,0-3,0-5.35-.9-5.43-4.21s2.19-4.42,5.21-4.42q15.66,0,31.32,0c2.91,0,5,1.21,5.08,4.21,0,3.2-2.16,4.45-5.24,4.42C206.08,401.15,200.86,401.18,195.64,401.19Z"/><path class="cls-1" d="M367.27,496.44V363.08c1.39-.07,2.61-.17,3.82-.17,17.21,0,34.42-.05,51.62,0,12.12.05,21,5.46,26.2,16.5q10.2,21.61,20.31,43.28c4,8.54,5.15,16.44,3.74,26.54-1.87.1-3.82.16-5.76.32a11.33,11.33,0,0,0-10.76,10.9A11.53,11.53,0,0,0,467,472c1.95.19,3.94,0,5.89,0,0,5.22.46,10.08-.12,14.82a10.85,10.85,0,0,1-9.92,9.27c-5.19.38-10.42.09-15.82.09-.5-1.83-.91-3.62-1.49-5.36a31.68,31.68,0,0,0-31.2-21.66,31.16,31.16,0,0,0-29.16,23.25c-.87,3.38-2.28,4.31-5.54,4.06C375.66,496.22,371.66,496.44,367.27,496.44Zm50.5-67.88q18.15,0,36.3,0c6,0,7.67-2.66,5.18-8.05-5.58-12.1-11.32-24.13-16.78-36.29-4-9-10.82-13.25-20.6-13.19-13.59.09-27.19,0-40.79,0-5.32,0-6.44,1.1-6.45,6.27q0,22.46,0,44.91c0,5.1,1.24,6.31,6.46,6.32Zm-29.71,7.59c-2.5,0-5,0-7.48,0-2.85,0-4.67,1.37-4.76,4.15s1.62,4.37,4.48,4.39c5.11,0,10.23.06,15.34,0,2.64,0,4.35-1.52,4.39-4.13.05-2.77-1.64-4.34-4.49-4.39C393.05,436.12,390.55,436.15,388.06,436.15Z"/><path class="cls-1" d="M249.74,500.43c-.42,13.94-10.84,23.87-24.57,23.4-12.77-.44-21.56-10.7-21.23-24.79.27-11.68,11.87-22,24.33-21.58A22,22,0,0,1,249.74,500.43Z"/><path class="cls-1" d="M415.58,478a22.64,22.64,0,0,1,22.77,23.1A22.86,22.86,0,1,1,415.58,478Z"/><path class="cls-1" d="M473.12,457.52v6.14c-2.59-.51-5-.89-7.32-1.56a4.16,4.16,0,0,1-.13-2.56C468,458.75,470.35,458.22,473.12,457.52Z"/><path d="M417.77,428.56H381.09c-5.22,0-6.45-1.22-6.46-6.32q0-22.46,0-44.91c0-5.17,1.13-6.27,6.45-6.27,13.6,0,27.2.06,40.79,0,9.78-.06,16.56,4.2,20.6,13.19,5.46,12.16,11.2,24.19,16.78,36.29,2.49,5.39.78,8-5.18,8.05Q435.92,428.59,417.77,428.56Zm-34.33-9H449c-.43-1.11-.7-1.91-1.05-2.66-4.6-9.93-9.28-19.82-13.8-29.79-2.27-5-6.06-7.35-11.46-7.35q-18.3,0-36.61,0a22.84,22.84,0,0,0-2.68.34Z"/><path d="M388.06,436.15c2.49,0,5,0,7.48,0,2.85,0,4.54,1.62,4.49,4.39,0,2.61-1.75,4.09-4.39,4.13-5.11.06-10.23,0-15.34,0-2.86,0-4.56-1.63-4.48-4.39s1.91-4.18,4.76-4.15C383.07,436.17,385.56,436.15,388.06,436.15Z"/><path class="cls-1" d="M383.44,419.57V380.13a22.84,22.84,0,0,1,2.68-.34q18.3,0,36.61,0c5.4,0,9.19,2.34,11.46,7.35,4.52,10,9.2,19.86,13.8,29.79.35.75.62,1.55,1.05,2.66Z"/></svg>