<svg viewBox="0 0 190 40" fill="none" xmlns="http://www.w3.org/2000/svg">
<g clip-path="url(#clip0)">
<path d="M133.331 24.806V10.366H137.266V21.433H142.158V24.806H133.331Z" fill="#4D4A59"/>
<path d="M146.893 24.806V10.366H155.742V13.542H150.731V16.042H155.455V19.149H150.731V21.576H155.742V24.811L146.893 24.806Z" fill="#4D4A59"/>
<path d="M160.445 24.806V10.366H164.245L169.699 17.793C169.89 18.089 170.065 18.3955 170.222 18.711C170.489 19.237 170.752 19.7793 171.011 20.338C170.913 19.582 170.857 19.0527 170.843 18.75C170.804 18.2767 170.784 17.859 170.784 17.497V10.366H174.562V24.806H170.784L165.329 17.35C165.139 17.0505 164.964 16.7411 164.807 16.423C164.57 16.0017 164.307 15.4683 164.018 14.823C164.085 15.3357 164.147 15.869 164.206 16.423C164.232 17.041 164.245 17.4583 164.245 17.675V24.807L160.445 24.806Z" fill="#4D4A59"/>
<path d="M181.033 20.141C181.532 20.7228 182.117 21.2252 182.767 21.631C183.279 21.9408 183.863 22.1108 184.461 22.124C184.928 22.1416 185.386 21.9911 185.752 21.7C185.915 21.5727 186.046 21.4093 186.135 21.2228C186.223 21.0362 186.268 20.8316 186.264 20.625C186.275 20.4199 186.244 20.2147 186.171 20.0227C186.098 19.8306 185.986 19.656 185.841 19.51C185.23 19.1216 184.552 18.8503 183.841 18.71C182.735 18.4831 181.707 17.9732 180.857 17.23C180.239 16.5391 179.92 15.6309 179.97 14.705C179.948 14.0762 180.06 13.4499 180.3 12.8681C180.54 12.2864 180.901 11.7626 181.36 11.332C181.842 10.8874 182.407 10.5426 183.022 10.3175C183.638 10.0923 184.292 9.99117 184.947 10.02C185.715 10.0105 186.479 10.1205 187.213 10.346C187.933 10.567 188.616 10.8928 189.24 11.313L188.004 14.144C187.593 13.7835 187.128 13.4905 186.625 13.276C186.185 13.092 185.713 12.9949 185.236 12.99C184.824 12.9753 184.419 13.0965 184.083 13.335C183.943 13.4314 183.829 13.5613 183.751 13.7128C183.674 13.8644 183.635 14.0328 183.639 14.203C183.635 14.3671 183.668 14.53 183.735 14.68C183.801 14.83 183.9 14.9635 184.024 15.071C184.487 15.3718 185.002 15.5828 185.543 15.693C185.569 15.7 185.592 15.704 185.612 15.707C185.642 15.7135 185.671 15.7218 185.7 15.732C186.861 15.9452 187.951 16.4396 188.876 17.172C189.228 17.534 189.497 17.968 189.665 18.444C189.843 18.978 189.93 19.5382 189.921 20.101C189.948 20.7897 189.827 21.4762 189.567 22.1144C189.307 22.7526 188.913 23.3277 188.412 23.801C187.299 24.7642 185.858 25.262 184.388 25.191C183.448 25.2081 182.515 25.0381 181.641 24.691C180.755 24.3015 179.947 23.7531 179.258 23.073L181.033 20.141Z" fill="#4D4A59"/>
<path d="M45.181 24.807H41.481V10.367H45.599C46.7401 10.3306 47.8819 10.41 49.007 10.604C49.6093 10.7478 50.172 11.0242 50.654 11.413C51.1817 11.8556 51.5977 12.4165 51.868 13.05C52.4341 14.4924 52.4341 16.0956 51.868 17.538C51.6242 18.1811 51.2033 18.7421 50.654 19.156C50.2254 19.4849 49.7308 19.7172 49.204 19.837C48.3336 20.0079 47.4463 20.0774 46.56 20.044H45.179L45.181 24.807ZM45.181 16.866H45.93C46.6156 16.9239 47.3034 16.7851 47.913 16.466C48.0894 16.299 48.2302 16.098 48.3269 15.8751C48.4235 15.6523 48.4741 15.4121 48.4755 15.1692C48.4769 14.9263 48.4291 14.6855 48.335 14.4616C48.2409 14.2376 48.1025 14.035 47.928 13.866C47.3259 13.5518 46.6465 13.4165 45.97 13.476H45.181V16.866ZM57.024 10.366H60.96V17.393C60.9466 18.1369 60.973 18.8809 61.039 19.622C61.0783 20.0067 61.1681 20.3847 61.306 20.746C61.3725 20.93 61.4759 21.0984 61.6099 21.2409C61.7438 21.3835 61.9055 21.4971 62.085 21.575C62.5158 21.7763 62.9855 21.8806 63.461 21.8806C63.9365 21.8806 64.4062 21.7763 64.837 21.575C65.1895 21.4003 65.4689 21.1067 65.626 20.746C65.7549 20.3826 65.8411 20.0053 65.883 19.622C65.9578 18.8815 65.9872 18.1371 65.971 17.393V10.37H69.887V18.004C69.9229 19.175 69.827 20.3464 69.601 21.496C69.443 22.2132 69.1108 22.8805 68.634 23.439C68.0893 24.0582 67.3824 24.5126 66.593 24.751C65.583 25.072 64.5264 25.2221 63.467 25.195C62.404 25.2257 61.3436 25.0756 60.331 24.751C59.5458 24.5059 58.8418 24.0525 58.294 23.439C57.8231 22.8769 57.4927 22.2109 57.33 21.496C57.0902 20.3482 56.9878 19.176 57.025 18.004V10.37L57.024 10.366ZM74.59 24.806V10.366H78.709C79.509 10.366 80.1823 10.3823 80.729 10.415C81.1853 10.4362 81.6393 10.4923 82.087 10.583C82.6782 10.7185 83.2353 10.9737 83.724 11.333C84.2485 11.7257 84.6603 12.2496 84.918 12.852C85.2087 13.4823 85.3536 14.17 85.342 14.864C85.3834 15.8423 85.0911 16.8057 84.513 17.596C83.9141 18.3423 83.0583 18.8383 82.113 18.987L86.048 24.807H81.6L78.286 19.155V24.807L74.59 24.806ZM78.233 17.191H78.962C79.6124 17.2441 80.2635 17.0961 80.827 16.767C81.0238 16.5994 81.1789 16.3882 81.2799 16.1502C81.381 15.9123 81.4251 15.654 81.409 15.396C81.438 15.1154 81.4045 14.8317 81.3108 14.5656C81.2171 14.2995 81.0655 14.0575 80.867 13.857C80.3225 13.4982 79.6724 13.3347 79.023 13.393H78.234L78.233 17.191ZM94.443 24.762H90.743V10.322H94.865C96.0057 10.2855 97.1472 10.3649 98.272 10.559C98.8747 10.7027 99.4377 10.979 99.92 11.368C100.447 11.8109 100.863 12.3717 101.133 13.005C101.698 14.4476 101.698 16.0504 101.133 17.493C100.889 18.1358 100.469 18.6966 99.92 19.111C99.4912 19.4395 98.9966 19.6718 98.47 19.792C97.5996 19.9629 96.7123 20.0324 95.826 19.999H94.445L94.443 24.762ZM94.399 16.862H95.149C95.8342 16.92 96.5218 16.7812 97.131 16.462C97.3074 16.295 97.4482 16.094 97.5449 15.8711C97.6415 15.6483 97.6921 15.4081 97.6935 15.1652C97.6949 14.9223 97.6471 14.6815 97.553 14.4576C97.4589 14.2336 97.3205 14.031 97.146 13.862C96.5439 13.5479 95.8645 13.4125 95.188 13.472H94.399V16.862ZM106.259 24.803V10.363H110.195V21.433H115.087V24.806L106.259 24.803ZM119.749 24.803V10.363H128.597V13.539H123.585V16.039H128.31V19.146H123.585V21.573H128.596V24.808L119.749 24.803ZM35.096 17.544C35.096 12.8894 33.247 8.42554 29.9557 5.13428C26.6644 1.84301 22.2005 -0.00601196 17.546 -0.00601196C12.8914 -0.00601196 8.42751 1.84301 5.13625 5.13428C1.84498 8.42554 -0.00402832 12.8894 -0.00402832 17.544V39.996C1.15948 39.996 2.27532 39.5338 3.09805 38.7111C3.92077 37.8883 4.38297 36.7725 4.38297 35.609V17.548C4.38216 14.7542 5.27035 12.0326 6.91901 9.77707C8.56768 7.52157 10.8913 5.84919 13.5535 5.00195C16.2158 4.15472 19.0786 4.17658 21.7275 5.06439C24.3765 5.9522 26.6743 7.65988 28.2883 9.94031C29.9024 12.2207 30.7489 14.9556 30.7054 17.7491C30.6619 20.5425 29.7306 23.2497 28.0464 25.4788C26.3622 27.7078 24.0123 29.3432 21.337 30.1481C18.6616 30.953 15.7996 30.8857 13.165 29.956V25.141C14.8374 26.1061 16.7815 26.4924 18.6958 26.2399C20.6101 25.9875 22.3876 25.1103 23.7526 23.7447C25.1176 22.379 25.9938 20.601 26.2453 18.6866C26.4967 16.7721 26.1095 14.8282 25.1435 13.1563C24.1775 11.4844 22.6869 10.178 20.9027 9.43973C19.1185 8.70142 17.1406 8.57249 15.2757 9.07294C13.4108 9.57338 11.7632 10.6752 10.5883 12.2076C9.41349 13.7399 8.77714 15.6171 8.77797 17.548C8.77797 17.571 8.77797 17.594 8.77797 17.617V32.739C11.4403 34.2745 14.4591 35.084 17.5325 35.0866C20.6058 35.0892 23.626 34.2847 26.2909 32.7537C28.9557 31.2226 31.1719 29.0187 32.7176 26.3624C34.2634 23.706 35.0845 20.6903 35.099 17.617C35.095 17.593 35.096 17.571 35.096 17.548V17.544ZM17.548 13.157C18.4156 13.1562 19.2641 13.4127 19.9859 13.8941C20.7078 14.3755 21.2707 15.0601 21.6035 15.8615C21.9363 16.6628 22.0239 17.5448 21.8554 18.3959C21.6869 19.2471 21.2698 20.0291 20.6569 20.6432C20.0439 21.2573 19.2626 21.6759 18.4118 21.8459C17.5609 22.016 16.6788 21.9299 15.8768 21.5986C15.0749 21.2673 14.3892 20.7056 13.9065 19.9846C13.4238 19.2636 13.1658 18.4156 13.165 17.548C13.165 16.3852 13.6266 15.2699 14.4485 14.4473C15.2703 13.6247 16.3852 13.162 17.548 13.161V13.157Z" fill="url(#paint0_linear)"/>
</g>
<defs>
<linearGradient id="paint0_linear" x1="-0.00402832" y1="19.995" x2="128.597" y2="19.995" gradientUnits="userSpaceOnUse">
<stop offset="0.006" stop-color="#C955FF"/>
<stop offset="1" stop-color="#8C52FF"/>
</linearGradient>
<clipPath id="clip0">
<rect width="189.927" height="40" fill="white"/>
</clipPath>
</defs>
</svg>
